<svg xmlns="http://www.w3.org/2000/svg" width="18" height="17" viewBox="0 0 18 17"><defs><style>.a{fill:#51821b;}</style></defs><path class="a" d="M305.7,16a3.7,3.7,0,1,0,3.7,3.7A3.7,3.7,0,0,0,305.7,16Zm1.586,4.228h-1.057v1.057h-1.057V20.228h-1.057V19.171h1.057V18.114h1.057v1.057h1.057Z" transform="translate(-291.4 -16)"/><path class="a" d="M4.815,86.633h9.9l1.169-4.545a4.659,4.659,0,0,1-1.153.249l-.011.043H12.241l.039-.475a4.727,4.727,0,0,1-1-.657l-.094,1.131H8.99l-.176-2.127h1.548a4.791,4.791,0,0,1-.512-1.063H4.886L4.183,76H0v1.063H3.338l1.874,8.506h-.4a1.595,1.595,0,0,0,0,3.19h.624a1.582,1.582,0,1,0,2.969,0h2.3a1.582,1.582,0,1,0,2.969,0h1.151V87.7H4.815a.532.532,0,0,1,0-1.063Zm7.338-3.19h2.29L13.9,85.569H11.977Zm-1.058,0-.176,2.127H9.254l-.176-2.127ZM8.2,85.569h-1.9l-.469-2.127h2.2ZM5.121,80.253H7.757l.176,2.127H5.589Zm2.33,9.038a.527.527,0,1,1-.527-.532A.53.53,0,0,1,7.451,89.291Zm5.272,0a.527.527,0,1,1-.527-.532A.53.53,0,0,1,12.723,89.291Z" transform="translate(0 -73.886)"/></svg>