<svg xmlns="http://www.w3.org/2000/svg" width="30.035" height="30.036" viewBox="0 0 30.035 30.036"><defs><style>.a{fill:#51821b;}.b{fill:#fafafa;}</style></defs><path class="a" d="M28.665,15.018l1.318-3.437a.94.94,0,0,0-.285-1.066L26.84,8.2l-.578-3.636a.938.938,0,0,0-.781-.779l-3.636-.578L19.531.347A.94.94,0,0,0,18.467.062l-3.439,1.32L11.591.064a.936.936,0,0,0-1.064.285L8.21,3.208l-3.636.578a.94.94,0,0,0-.779.779L3.217,8.2.358,10.517a.939.939,0,0,0-.285,1.064l1.318,3.437L.073,18.455A.936.936,0,0,0,.358,19.52l2.859,2.314L3.8,25.47a.938.938,0,0,0,.779.781l3.636.578,2.316,2.857a.934.934,0,0,0,1.066.285l3.435-1.316,3.437,1.318a.939.939,0,0,0,1.066-.287l2.314-2.857,3.636-.578a.94.94,0,0,0,.781-.781l.578-3.636L29.7,19.52a.937.937,0,0,0,.285-1.064Z" transform="translate(-0.01 0)"/><g transform="translate(9.386 7.509)"><path class="b" d="M162.838,133.666a2.816,2.816,0,1,1,2.816-2.816A2.819,2.819,0,0,1,162.838,133.666Zm0-3.754a.939.939,0,1,0,.939.939A.939.939,0,0,0,162.838,129.912Z" transform="translate(-160.022 -128.034)"/><path class="b" d="M258.838,293.666a2.816,2.816,0,1,1,2.816-2.816A2.819,2.819,0,0,1,258.838,293.666Zm0-3.754a.939.939,0,1,0,.939.939A.941.941,0,0,0,258.838,289.912Z" transform="translate(-250.391 -278.648)"/><path class="b" d="M160.974,143.035a.938.938,0,0,1-.762-1.485l9.385-13.14a.939.939,0,0,1,1.528,1.091l-9.386,13.14A.943.943,0,0,1,160.974,143.035Z" transform="translate(-160.035 -128.017)"/></g></svg>