<svg xmlns="http://www.w3.org/2000/svg" width="19.512" height="18.664" viewBox="0 0 19.512 18.664"><defs><style>.a{fill:#fff;}</style></defs><g transform="translate(0 -0.333)"><path class="a" d="M12.937,220.273H.636a.636.636,0,1,1,0-1.273h12.3a.636.636,0,1,1,0,1.273Zm0,0" transform="translate(0 -209.971)"/><path class="a" d="M224.64,141.69a.637.637,0,0,1-.45-1.087l2.944-2.944-2.944-2.944a.637.637,0,0,1,.9-.9l3.393,3.394a.636.636,0,0,1,0,.9L225.09,141.5A.631.631,0,0,1,224.64,141.69Zm0,0" transform="translate(-215.096 -127.995)"/><path class="a" d="M45.2,19a9.284,9.284,0,0,1-8.685-5.918.636.636,0,1,1,1.184-.465,8.059,8.059,0,1,0,0-5.9.636.636,0,1,1-1.184-.465A9.332,9.332,0,1,1,45.2,19Zm0,0" transform="translate(-35.022 0)"/></g></svg>