<svg xmlns="http://www.w3.org/2000/svg" width="75" height="75" viewBox="0 0 75 75"><path d="M67.2,77.25H12.286A10.037,10.037,0,0,1,2.25,67.212V12.288A10.037,10.037,0,0,1,12.286,2.25H67.2A10.037,10.037,0,0,1,77.233,12.288V67.212A10.037,10.037,0,0,1,67.2,77.25ZM12.286,8.019a4.269,4.269,0,0,0-4.268,4.269V67.212a4.269,4.269,0,0,0,4.268,4.269H67.2a4.269,4.269,0,0,0,4.268-4.269V12.288A4.269,4.269,0,0,0,67.2,8.019Z" transform="translate(-2.25 -2.25)"/><path d="M5.129,36.075a2.929,2.929,0,0,1-2.192-.994,2.858,2.858,0,0,1,.346-4.054L22.971,14.5a7.721,7.721,0,0,1,10.382.421L42.7,24.217a1.93,1.93,0,0,0,2.5,0l9.075-6.541a7.723,7.723,0,0,1,9.383,0l12.5,9.906a2.875,2.875,0,0,1,.461,4.054,2.911,2.911,0,0,1-4.076.459L60.078,22.152a1.931,1.931,0,0,0-2.346,0l-9.075,7a7.721,7.721,0,0,1-10.036-.688l-9.344-9.486a1.93,1.93,0,0,0-2.576,0L6.974,35.424A2.778,2.778,0,0,1,5.129,36.075Z" transform="translate(-2.245 27.589)"/><path d="M22.768,27.287A10.518,10.518,0,1,1,33.287,16.768,10.518,10.518,0,0,1,22.768,27.287Zm0-15.3a4.781,4.781,0,1,0,4.781,4.781A4.781,4.781,0,0,0,22.768,11.987Z" transform="translate(26.283 9.168)"/></svg>