<svg xmlns="http://www.w3.org/2000/svg" width="39.092" height="39.091" viewBox="0 0 39.092 39.091"><defs><style>.a{fill:#51821b;}.b{fill:#fafafa;}</style></defs><path class="a" d="M38.854,16.535,22.566.247A.814.814,0,0,0,21.99.009H.816A.814.814,0,0,0,.239,1.4L37.7,38.862a.815.815,0,0,0,1.391-.577V17.111A.814.814,0,0,0,38.854,16.535Z" transform="translate(0 -0.009)"/><g transform="translate(13.042 3.258)"><path class="b" d="M174.888,52.46a.814.814,0,0,1-.8-.977l1.1-5.507-2.984,2.989a.814.814,0,0,1-1.152-1.151l4.886-4.886a.814.814,0,0,1,1.375.735l-1.1,5.507,2.986-2.984a.814.814,0,1,1,1.172,1.132l-.02.02-4.886,4.886A.814.814,0,0,1,174.888,52.46Z" transform="translate(-170.827 -42.688)"/><path class="b" d="M248.6,126.312a.814.814,0,0,1-.577-.238l-2.443-2.443a.814.814,0,0,1,0-1.152l4.886-4.886a.814.814,0,0,1,1.152,0l2.443,2.443a.814.814,0,0,1-1.132,1.172l-.02-.02-1.867-1.868-3.735,3.735,1.867,1.867a.814.814,0,0,1-.575,1.391Z" transform="translate(-239.655 -111.654)"/><path class="b" d="M279.907,152.732a.814.814,0,0,1-.577-.238l-1.629-1.629a.814.814,0,0,1,1.151-1.152l1.629,1.629a.814.814,0,0,1-.575,1.389Z" transform="translate(-269.331 -141.331)"/><path class="b" d="M324.112,182.081a.814.814,0,0,1-.772-1.072l1.114-3.341-3.341,1.114a.824.824,0,0,1-.873-.239.815.815,0,0,1-.112-.9l3.258-6.515a.815.815,0,0,1,1.458.728h0l-2.378,4.756,3.021-1.007a.823.823,0,0,1,.834.2.814.814,0,0,1,.2.834l-1.007,3.02,4.756-2.378a.815.815,0,0,1,.728,1.458L324.48,182A.814.814,0,0,1,324.112,182.081Z" transform="translate(-308.649 -160.908)"/></g></svg>