<svg xmlns="http://www.w3.org/2000/svg" width="18.664" height="18.664" viewBox="0 0 18.664 18.664"><defs><style>.a{fill:#fff;}</style></defs><g transform="translate(-1 -1)"><path class="a" d="M16.27,15.422V1.848A.848.848,0,0,0,15.422,1H1.848A.848.848,0,0,0,1,1.848V15.422a.848.848,0,0,0,.848.848H15.422A.848.848,0,0,0,16.27,15.422Zm-1.7-.848H2.7V2.7H14.574Z" transform="translate(0)"/><path class="a" d="M19.422,5h-1.7V6.7h.848V18.574H6.7v-.848H5v1.7a.848.848,0,0,0,.848.848H19.422a.848.848,0,0,0,.848-.848V5.848A.848.848,0,0,0,19.422,5Z" transform="translate(-0.607 -0.607)"/><path class="a" d="M8.48,13.086h1.7V10.177h2.909V8.48H10.177V5.571H8.48V8.48H5.571v1.7H8.48Z" transform="translate(-0.693 -0.693)"/></g></svg>