<svg xmlns="http://www.w3.org/2000/svg" width="14.869" height="14.869" viewBox="0 0 14.869 14.869"><defs><style>.a{fill:#51821b;}</style></defs><path class="a" d="M17.937,18.869A13.681,13.681,0,0,1,4,4.932.931.931,0,0,1,4.929,4H7.382a.93.93,0,0,1,.919.794A11.539,11.539,0,0,0,9.245,7.95l.1.206a.657.657,0,0,1-.214.811,1.8,1.8,0,0,0-.458,2.486A10.982,10.982,0,0,0,11.416,14.2a1.8,1.8,0,0,0,2.486-.458.657.657,0,0,1,.811-.214l.205.1a11.54,11.54,0,0,0,3.156.944.93.93,0,0,1,.794.919v2.453a.93.93,0,0,1-.93.929Z" transform="translate(-4 -4)"/></svg>