<svg xmlns="http://www.w3.org/2000/svg" width="46" height="45" viewBox="0 0 46 45"><defs><style>.a{fill:#51821b;}</style></defs><g transform="translate(-8.7 -9.46)"><path class="a" d="M51.541,32.728v15.95a5.758,5.758,0,0,1-5.725,5.782H17.584a5.758,5.758,0,0,1-5.725-5.782V32.728A3.375,3.375,0,0,1,8.7,29.338V23.756a3.345,3.345,0,0,1,3.356-3.389h3.85L23.8,10a1.389,1.389,0,0,1,1.876-.3,1.406,1.406,0,0,1,.3,1.894l-6.614,8.773H44.138l-6.614-8.773a1.317,1.317,0,0,1,.3-1.894A1.256,1.256,0,0,1,39.6,10l7.9,10.368h3.85A3.345,3.345,0,0,1,54.7,23.756v5.583A3.449,3.449,0,0,1,51.541,32.728Zm-36.918,0V48.578a3.091,3.091,0,0,0,3.06,3.09H45.915a3.091,3.091,0,0,0,3.06-3.09V32.728H14.623Zm36.622-9.67H12.155a.678.678,0,0,0-.691.7v5.583a.678.678,0,0,0,.691.7H51.344a.678.678,0,0,0,.691-.7V23.756a.84.84,0,0,0-.79-.7Z"/><path class="a" d="M22.5,37.5a1.4,1.4,0,1,1,2.8,0v9.7a1.4,1.4,0,1,1-2.8,0Z" transform="translate(-0.189 -0.14)"/><path class="a" d="M30.6,36.2a1.4,1.4,0,1,1,2.8,0V48.6a1.4,1.4,0,1,1-2.8,0Z" transform="translate(-0.3 -0.14)"/><path class="a" d="M38.8,37.5a1.4,1.4,0,1,1,2.8,0v9.7a1.4,1.4,0,0,1-2.8,0Z" transform="translate(-0.412 -0.14)"/></g></svg>