<svg xmlns="http://www.w3.org/2000/svg" width="37.153" height="36.994" viewBox="0 0 37.153 36.994"><defs><style>.a{fill:#51821b;}</style></defs><path class="a" d="M36.247,189.4h-3.2V168.976a.907.907,0,0,0-.906-.906H30.073a.544.544,0,1,0,0,1.087h1.886V189.4H26.8V169.157h.722a.544.544,0,1,0,0-1.087h-.9a.907.907,0,0,0-.906.906V189.4H22.246V175.859a.907.907,0,0,0-.906-.906H15.813a.907.907,0,0,0-.906.906V189.4H11.445v-7.6a.907.907,0,0,0-.906-.906H5.012a.907.907,0,0,0-.906.906v2.431a.544.544,0,0,0,1.087,0v-2.25h5.164V189.4H5.193v-2.637a.544.544,0,1,0-1.087,0V189.4H.906a.907.907,0,0,0-.906.906v1.734a.907.907,0,0,0,.906.906h35.34a.907.907,0,0,0,.906-.906v-1.734A.907.907,0,0,0,36.247,189.4ZM15.994,176.04h5.164V189.4H15.994Zm20.071,15.82H1.087v-1.371H36.065v1.371Z" transform="translate(0 -155.954)"/><path class="a" d="M40.232,195.875l-.311,1.813a1.336,1.336,0,0,0,1.941,1.41l1.628-.856,1.628.856a1.338,1.338,0,0,0,1.941-1.41l-.311-1.813,1.317-1.284a1.338,1.338,0,0,0-.741-2.282l-1.821-.265-.814-1.65a1.338,1.338,0,0,0-2.4,0l-.814,1.65-1.821.265a1.338,1.338,0,0,0-.741,2.282Zm-.622-2.32a.244.244,0,0,1,.2-.171l1.9-.277a.927.927,0,0,0,.7-.507l.851-1.725a.25.25,0,0,1,.449,0l.851,1.725a.927.927,0,0,0,.7.507l1.9.277a.25.25,0,0,1,.139.427l-1.378,1.343a.927.927,0,0,0-.267.821l.325,1.9a.25.25,0,0,1-.363.264l-1.7-.9a.927.927,0,0,0-.863,0l-1.7.9a.25.25,0,0,1-.363-.264l.325-1.9a.927.927,0,0,0-.267-.821l-1.378-1.343a.244.244,0,0,1-.063-.257Z" transform="translate(-35.716 -175.967)"/><path class="a" d="M189.078,104.718l-.311,1.813a1.336,1.336,0,0,0,1.941,1.41l1.628-.856,1.628.856a1.338,1.338,0,0,0,1.941-1.41l-.311-1.813,1.317-1.284a1.338,1.338,0,0,0-.742-2.282l-1.821-.265-.814-1.65a1.338,1.338,0,0,0-2.4,0l-.814,1.65-1.821.265a1.338,1.338,0,0,0-.741,2.282Zm-.622-2.32a.244.244,0,0,1,.2-.17l1.9-.277a.927.927,0,0,0,.7-.507l.851-1.725a.25.25,0,0,1,.449,0l.852,1.725a.927.927,0,0,0,.7.507l1.9.277a.25.25,0,0,1,.139.427L194.776,104a.927.927,0,0,0-.267.821l.325,1.9a.251.251,0,0,1-.364.264l-1.7-.9a.927.927,0,0,0-.863,0l-1.7.9a.25.25,0,0,1-.363-.264l.325-1.9A.927.927,0,0,0,189.9,104l-1.378-1.343A.244.244,0,0,1,188.456,102.4Z" transform="translate(-173.76 -91.425)"/><path class="a" d="M337.926,7.322l-.311,1.813a1.338,1.338,0,0,0,1.941,1.41l1.628-.856,1.628.856a1.338,1.338,0,0,0,1.941-1.41l-.311-1.813,1.317-1.284a1.338,1.338,0,0,0-.741-2.282L343.2,3.491l-.814-1.65a1.338,1.338,0,0,0-2.4,0l-.814,1.65-1.821.265a1.338,1.338,0,0,0-.742,2.282ZM337.3,5a.244.244,0,0,1,.2-.171l1.9-.277a.926.926,0,0,0,.7-.507l.851-1.725a.25.25,0,0,1,.449,0l.852,1.725a.927.927,0,0,0,.7.507l1.9.277a.25.25,0,0,1,.139.427L343.623,6.6a.928.928,0,0,0-.267.821l.325,1.9a.251.251,0,0,1-.364.264l-1.7-.9a.927.927,0,0,0-.863,0l-1.7.9a.251.251,0,0,1-.364-.264l.325-1.9a.927.927,0,0,0-.267-.821l-1.378-1.343A.244.244,0,0,1,337.3,5Z" transform="translate(-311.807 -1.096)"/></svg>