<svg xmlns="http://www.w3.org/2000/svg" width="46" height="46" viewBox="0 0 46 46"><defs><style>.a{fill:#51821b;}</style></defs><path class="a" d="M39.263,6.737A23,23,0,0,0,6.736,39.263,23,23,0,0,0,39.263,6.737ZM9.982,38.57A13.159,13.159,0,0,1,23,26.99a13.109,13.109,0,0,1,13.018,11.58,20.262,20.262,0,0,1-26.036,0ZM23,24.214a6.986,6.986,0,1,1,6.986-6.986A6.994,6.994,0,0,1,23,24.214ZM38.338,36.291A15.844,15.844,0,0,0,28.42,25.245a9.681,9.681,0,1,0-10.837,0A15.83,15.83,0,0,0,7.66,36.289a20.3,20.3,0,1,1,30.678,0Zm0,0" transform="translate(0)"/></svg>